REM DIRINDEX 1\2,1\3,1\4
REM DIRNAME folder01,folder02,folder03,folder04
TITLE ""
FILE "CD1-07.mp3" MP3
  TRACK 01 AUDIO
    TITLE "2:cjc031_0244"
    INDEX 01 00:00:00
  TRACK 02 AUDIO
    TITLE "3:cjc031_0245"
    INDEX 01 00:01:05
  TRACK 03 AUDIO
    TITLE "2:cjc031_0246"
    INDEX 01 00:02:59
  TRACK 04 AUDIO
    TITLE "3:cjc031_0247"
    INDEX 01 00:04:07
  TRACK 05 AUDIO
    TITLE "2:cjc031_0248"
    INDEX 01 00:05:30
  TRACK 06 AUDIO
    TITLE "3:cjc031_0249"
    INDEX 01 00:06:53
  TRACK 07 AUDIO
    TITLE "2:cjc031_0250"
    INDEX 01 00:08:21
  TRACK 08 AUDIO
    TITLE "3:cjc031_0251"
    INDEX 01 00:09:47
  TRACK 09 AUDIO
    TITLE "2:cjc031_0252"
    INDEX 01 00:11:19
  TRACK 10 AUDIO
    TITLE "3:cjc031_0253"
    INDEX 01 00:12:32
  TRACK 11 AUDIO
    TITLE "2:cjc031_0254"
    INDEX 01 00:14:00
  TRACK 12 AUDIO
    TITLE "3:cjc031_0255"
    INDEX 01 00:15:11
  TRACK 13 AUDIO
    TITLE "2:cjc031_0256"
    INDEX 01 00:16:46
  TRACK 14 AUDIO
    TITLE "3:cjc031_0257"
    INDEX 01 00:18:05
  TRACK 15 AUDIO
    TITLE "2:cjc031_0258"
    INDEX 01 00:19:50
  TRACK 16 AUDIO
    TITLE "3:cjc031_0259"
    INDEX 01 00:20:73
  TRACK 17 AUDIO
    TITLE "2:cjc031_0260"
    INDEX 01 00:22:07
  TRACK 18 AUDIO
    TITLE "3:cjc031_0261"
    INDEX 01 00:23:24
  TRACK 19 AUDIO
    TITLE "2:cjc031_0262"
    INDEX 01 00:24:49
  TRACK 20 AUDIO
    TITLE "3:cjc031_0263"
    INDEX 01 00:25:64
  TRACK 21 AUDIO
    TITLE "2:cjc031_0264"
    INDEX 01 00:27:53
  TRACK 22 AUDIO
    TITLE "3:cjc031_0265"
    INDEX 01 00:28:70
  TRACK 23 AUDIO
    TITLE "2:cjc031_0266"
    INDEX 01 00:30:34
  TRACK 24 AUDIO
    TITLE "3:cjc031_0267"
    INDEX 01 00:31:63
  TRACK 25 AUDIO
    TITLE "2:cjc031_0268"
    INDEX 01 00:33:15
  TRACK 26 AUDIO
    TITLE "3:cjc031_0269"
    INDEX 01 00:34:36
  TRACK 27 AUDIO
    TITLE "2:cjc031_0270"
    INDEX 01 00:36:07
  TRACK 28 AUDIO
    TITLE "3:cjc031_0271"
    INDEX 01 00:37:16
  TRACK 29 AUDIO
    TITLE "2:cjc031_0272"
    INDEX 01 00:38:41
  TRACK 30 AUDIO
    TITLE "3:cjc031_0273"
    INDEX 01 00:39:54
  TRACK 31 AUDIO
    TITLE "2:cjc031_0274"
    INDEX 01 00:41:16
  TRACK 32 AUDIO
    TITLE "3:cjc031_0275"
    INDEX 01 00:42:66
  TRACK 33 AUDIO
    TITLE "2:cjc031_0276"
    INDEX 01 00:44:40
  TRACK 34 AUDIO
    TITLE "3:cjc031_0277"
    INDEX 01 00:45:65
  TRACK 35 AUDIO
    TITLE "2:cjc031_0278"
    INDEX 01 00:47:13
  TRACK 36 AUDIO
    TITLE "3:cjc031_0279"
    INDEX 01 00:48:24
  TRACK 37 AUDIO
    TITLE "2:cjc031_0280"
    INDEX 01 00:49:47
  TRACK 38 AUDIO
    TITLE "3:cjc031_0281"
    INDEX 01 00:50:58
  TRACK 39 AUDIO
    TITLE "2:cjc031_0282"
    INDEX 01 00:52:22
  TRACK 40 AUDIO
    TITLE "3:cjc031_0283"
    INDEX 01 00:53:25
  TRACK 41 AUDIO
    TITLE "2:cjc031_0284"
    INDEX 01 00:54:44
  TRACK 42 AUDIO
    TITLE "3:cjc031_0285"
    INDEX 01 00:55:51
  TRACK 43 AUDIO
    TITLE "2:cjc031_0286"
    INDEX 01 00:56:61
  TRACK 44 AUDIO
    TITLE "3:cjc031_0287"
    INDEX 01 00:58:22
  TRACK 45 AUDIO
    TITLE "2:cjc031_0288"
    INDEX 01 00:59:53
  TRACK 46 AUDIO
    TITLE "3:cjc031_0289"
    INDEX 01 01:01:11
  TRACK 47 AUDIO
    TITLE "2:cjc031_0290"
    INDEX 01 01:02:54
  TRACK 48 AUDIO
    TITLE "3:cjc031_0291"
    INDEX 01 01:04:09
  TRACK 49 AUDIO
    TITLE "2:cjc031_0292"
    INDEX 01 01:05:48
  TRACK 50 AUDIO
    TITLE "3:cjc031_0293"
    INDEX 01 01:06:69
  TRACK 51 AUDIO
    TITLE "2:cjc031_0294"
    INDEX 01 01:08:29
  TRACK 52 AUDIO
    TITLE "3:cjc031_0295"
    INDEX 01 01:09:52
  TRACK 53 AUDIO
    TITLE "2:cjc031_0296"
    INDEX 01 01:11:23
  TRACK 54 AUDIO
    TITLE "3:cjc031_0297"
    INDEX 01 01:12:46
  TRACK 55 AUDIO
    TITLE "2:cjc031_0298"
    INDEX 01 01:14:14
  TRACK 56 AUDIO
    TITLE "3:cjc031_0299"
    INDEX 01 01:15:29
  TRACK 57 AUDIO
    TITLE "2:cjc031_0300"
    INDEX 01 01:16:67
  TRACK 58 AUDIO
    TITLE "3:cjc031_0301"
    INDEX 01 01:18:19
  TRACK 59 AUDIO
    TITLE "2:cjc031_0302"
    INDEX 01 01:20:12
  TRACK 60 AUDIO
    TITLE "3:cjc031_0303"
    INDEX 01 01:21:21
  TRACK 61 AUDIO
    TITLE "2:cjc031_0304"
    INDEX 01 01:22:41
  TRACK 62 AUDIO
    TITLE "3:cjc031_0305"
    INDEX 01 01:23:63
  TRACK 63 AUDIO
    TITLE "2:cjc031_0306"
    INDEX 01 01:25:23
  TRACK 64 AUDIO
    TITLE "3:cjc031_0307"
    INDEX 01 01:26:44
  TRACK 65 AUDIO
    TITLE "2:cjc031_0308"
    INDEX 01 01:28:00
  TRACK 66 AUDIO
    TITLE "3:cjc031_0309"
    INDEX 01 01:29:25
  TRACK 67 AUDIO
    TITLE "2:cjc031_0310"
    INDEX 01 01:30:62
  TRACK 68 AUDIO
    TITLE "3:cjc031_0311"
    INDEX 01 01:32:13
  TRACK 69 AUDIO
    TITLE "2:cjc031_0312"
    INDEX 01 01:33:40
  TRACK 70 AUDIO
    TITLE "3:cjc031_0313"
    INDEX 01 01:34:63
  TRACK 71 AUDIO
    TITLE "2:cjc031_0314"
    INDEX 01 01:36:29
  TRACK 72 AUDIO
    TITLE "3:cjc031_0315"
    INDEX 01 01:37:60
  TRACK 73 AUDIO
    TITLE "2:cjc031_0316"
    INDEX 01 01:39:37
  TRACK 74 AUDIO
    TITLE "3:cjc031_0317"
    INDEX 01 01:40:54
  TRACK 75 AUDIO
    TITLE "2:cjc031_0318"
    INDEX 01 01:42:20
  TRACK 76 AUDIO
    TITLE "3:cjc031_0319"
    INDEX 01 01:43:47
  TRACK 77 AUDIO
    TITLE "2:cjc031_0320"
    INDEX 01 01:45:20
  TRACK 78 AUDIO
    TITLE "3:cjc031_0321"
    INDEX 01 01:46:37
  TRACK 79 AUDIO
    TITLE "2:cjc031_0322"
    INDEX 01 01:47:72
  TRACK 80 AUDIO
    TITLE "3:cjc031_0323"
    INDEX 01 01:49:26
  TRACK 81 AUDIO
    TITLE "0:"
    INDEX 01 01:50:68
